<?xml version="1.0" encoding="UTF-8"?>
<!DOCTYPE svg PUBLIC "-//W3C//DTD SVG 1.1//EN" "http://www.w3.org/Graphics/SVG/1.1/DTD/svg11.dtd">
<svg xmlns="http://www.w3.org/2000/svg" version="1.1" width="256px" height="256px" style="shape-rendering:geometricPrecision; text-rendering:geometricPrecision; image-rendering:optimizeQuality; fill-rule:evenodd; clip-rule:evenodd" xmlns:xlink="http://www.w3.org/1999/xlink">
<g><path style="opacity:1" fill="#798f9b" d="M 202.5,-0.5 C 205.833,-0.5 209.167,-0.5 212.5,-0.5C 212.5,-0.166667 212.5,0.166667 212.5,0.5C 206.542,6.46416 200.875,12.7975 195.5,19.5C 189.982,21.4388 184.316,22.9388 178.5,24C 176.376,25.1217 174.543,26.6217 173,28.5C 172.741,34.2277 173.241,39.8944 174.5,45.5C 168.753,50.9103 163.753,56.9103 159.5,63.5C 117.167,63.5 74.8333,63.5 32.5,63.5C 33.2029,61.9657 33.0363,60.299 32,58.5C 29.9942,52.2675 31.8275,47.7675 37.5,45C 92.6985,30.0937 147.698,14.9271 202.5,-0.5 Z"/></g>
<g><path style="opacity:1" fill="#58707b" d="M 212.5,0.5 C 214.389,1.40085 215.722,2.90085 216.5,5C 221.693,24.7349 227.36,44.2349 233.5,63.5C 230.167,63.5 226.833,63.5 223.5,63.5C 223.043,61.2273 221.71,59.894 219.5,59.5C 218.223,58.1024 216.557,57.4357 214.5,57.5C 210.182,58.2372 206.182,59.5705 202.5,61.5C 199.219,61.4203 196.219,62.087 193.5,63.5C 182.167,63.5 170.833,63.5 159.5,63.5C 163.753,56.9103 168.753,50.9103 174.5,45.5C 174.833,45.5 175.167,45.5 175.5,45.5C 175.481,51.8596 178.481,55.5263 184.5,56.5C 190.899,55.3121 197.232,53.8121 203.5,52C 207.264,50.404 209.264,47.5707 209.5,43.5C 207.898,36.3036 205.731,29.3036 203,22.5C 202.184,21.1772 201.017,20.5106 199.5,20.5C 198.432,19.5655 197.099,19.2322 195.5,19.5C 200.875,12.7975 206.542,6.46416 212.5,0.5 Z M 219.5,59.5 C 219.804,60.1499 220.137,60.8165 220.5,61.5C 214.346,62.8166 208.346,62.8166 202.5,61.5C 206.792,60.9423 210.959,59.9423 215,58.5C 216.356,59.3802 217.856,59.7135 219.5,59.5 Z"/></g>
<g><path style="opacity:1" fill="#fcaf04" d="M 199.5,20.5 C 201.017,20.5106 202.184,21.1772 203,22.5C 205.731,29.3036 207.898,36.3036 209.5,43.5C 209.264,47.5707 207.264,50.404 203.5,52C 197.232,53.8121 190.899,55.3121 184.5,56.5C 178.481,55.5263 175.481,51.8596 175.5,45.5C 175.351,44.448 175.517,43.448 176,42.5C 181.812,35.0537 187.978,27.887 194.5,21C 196.134,20.5065 197.801,20.3398 199.5,20.5 Z"/></g>
<g><path style="opacity:1" fill="#fac52b" d="M 195.5,19.5 C 197.099,19.2322 198.432,19.5655 199.5,20.5C 197.801,20.3398 196.134,20.5065 194.5,21C 187.978,27.887 181.812,35.0537 176,42.5C 175.517,43.448 175.351,44.448 175.5,45.5C 175.167,45.5 174.833,45.5 174.5,45.5C 173.241,39.8944 172.741,34.2277 173,28.5C 174.543,26.6217 176.376,25.1217 178.5,24C 184.316,22.9388 189.982,21.4388 195.5,19.5 Z"/></g>
<g><path style="opacity:0.067" fill="#cfd5d9" d="M 219.5,59.5 C 217.856,59.7135 216.356,59.3802 215,58.5C 210.959,59.9423 206.792,60.9423 202.5,61.5C 206.182,59.5705 210.182,58.2372 214.5,57.5C 216.557,57.4357 218.223,58.1024 219.5,59.5 Z"/></g>
<g><path style="opacity:0.042" fill="#dfe2e5" d="M 219.5,59.5 C 221.71,59.894 223.043,61.2273 223.5,63.5C 213.5,63.5 203.5,63.5 193.5,63.5C 196.219,62.087 199.219,61.4203 202.5,61.5C 208.346,62.8166 214.346,62.8166 220.5,61.5C 220.137,60.8165 219.804,60.1499 219.5,59.5 Z"/></g>
<g><path style="opacity:1" fill="#e45103" d="M 17.5,64.5 C 22.5111,64.3341 27.5111,64.5007 32.5,65C 28.1832,67.3151 25.3498,70.8151 24,75.5C 23.5001,90.1629 23.3334,104.83 23.5,119.5C 18.1667,119.5 12.8333,119.5 7.5,119.5C 7.33341,104.163 7.50008,88.8297 8,73.5C 8.27842,72.5842 8.77842,71.9175 9.5,71.5C 10.9063,71.0269 11.573,70.0269 11.5,68.5C 13.0269,68.573 14.0269,67.9063 14.5,66.5C 14.9731,65.0937 15.9731,64.427 17.5,64.5 Z"/></g>
<g><path style="opacity:1" fill="#f17c01" d="M 17.5,64.5 C 22.3054,63.5128 27.3054,63.1795 32.5,63.5C 74.8333,63.5 117.167,63.5 159.5,63.5C 170.833,63.5 182.167,63.5 193.5,63.5C 203.5,63.5 213.5,63.5 223.5,63.5C 226.833,63.5 230.167,63.5 233.5,63.5C 237.514,63.3345 241.514,63.5012 245.5,64C 248.266,65.371 250.599,67.2043 252.5,69.5C 251.153,68.9717 249.819,68.805 248.5,69C 175.316,124.752 101.983,180.252 28.5,235.5C 26.2384,233.315 24.7384,230.648 24,227.5C 23.5001,215.505 23.3335,203.505 23.5,191.5C 40.5697,191.957 57.5697,191.457 74.5,190C 88.1905,184.053 94.8572,173.886 94.5,159.5C 95.0916,156.873 95.4249,154.206 95.5,151.5C 93.7816,134.279 84.4483,123.779 67.5,120C 52.8371,119.5 38.1705,119.333 23.5,119.5C 23.3334,104.83 23.5001,90.1629 24,75.5C 25.3498,70.8151 28.1832,67.3151 32.5,65C 27.5111,64.5007 22.5111,64.3341 17.5,64.5 Z"/></g>
<g><path style="opacity:0.776" fill="#f5a77f" d="M 14.5,66.5 C 14.0269,67.9063 13.0269,68.573 11.5,68.5C 11.9731,67.0937 12.9731,66.427 14.5,66.5 Z"/></g>
<g><path style="opacity:1" fill="#ec6c04" d="M 252.5,69.5 C 253.687,71.0725 254.687,72.7392 255.5,74.5C 255.5,126.167 255.5,177.833 255.5,229.5C 253.28,234.879 249.28,238.379 243.5,240C 168.666,240.832 93.9989,240.666 19.5,239.5C 24.1785,239.666 28.8452,239.499 33.5,239C 31.6536,237.97 29.9869,236.804 28.5,235.5C 101.983,180.252 175.316,124.752 248.5,69C 249.819,68.805 251.153,68.9717 252.5,69.5 Z"/></g>
<g><path style="opacity:0.435" fill="#f8c1a6" d="M 11.5,68.5 C 11.573,70.0269 10.9063,71.0269 9.5,71.5C 9.42702,69.9731 10.0937,68.9731 11.5,68.5 Z"/></g>
<g><path style="opacity:1" fill="#fec97f" d="M 7.5,119.5 C 12.8333,119.5 18.1667,119.5 23.5,119.5C 38.1705,119.333 52.8371,119.5 67.5,120C 84.4483,123.779 93.7816,134.279 95.5,151.5C 90.1667,151.5 84.8333,151.5 79.5,151.5C 79.7678,153.099 79.4345,154.432 78.5,155.5C 78.6959,140.196 71.3626,134.362 56.5,138C 49.9293,141.979 47.2626,147.812 48.5,155.5C 47.5655,154.432 47.2322,153.099 47.5,151.5C 31.5,151.5 15.5,151.5 -0.5,151.5C -0.5,142.167 -0.5,132.833 -0.5,123.5C 1.61476,121.109 4.28143,119.776 7.5,119.5 Z"/></g>
<g><path style="opacity:1" fill="#feb44e" d="M -0.5,151.5 C 15.5,151.5 31.5,151.5 47.5,151.5C 47.2322,153.099 47.5655,154.432 48.5,155.5C 50.3282,160.174 53.3282,163.841 57.5,166.5C 61.5984,168.955 65.9317,169.122 70.5,167C 71.056,166.617 71.3893,166.117 71.5,165.5C 74.8023,162.913 77.1356,159.58 78.5,155.5C 79.4345,154.432 79.7678,153.099 79.5,151.5C 84.8333,151.5 90.1667,151.5 95.5,151.5C 95.4249,154.206 95.0916,156.873 94.5,159.5C 91.5741,170.263 84.9075,177.763 74.5,182C 52.0462,183.123 29.7129,183.957 7.5,184.5C 4.28143,184.224 1.61476,182.891 -0.5,180.5C -0.5,170.833 -0.5,161.167 -0.5,151.5 Z"/></g>
<g><path style="opacity:1" fill="#ec6f04" d="M 94.5,159.5 C 94.8572,173.886 88.1905,184.053 74.5,190C 57.5697,191.457 40.5697,191.957 23.5,191.5C 23.5,189.167 23.5,186.833 23.5,184.5C 18.1667,184.5 12.8333,184.5 7.5,184.5C 29.7129,183.957 52.0462,183.123 74.5,182C 84.9075,177.763 91.5741,170.263 94.5,159.5 Z"/></g>
<g><path style="opacity:0.733" fill="#f7cf9a" d="M 71.5,165.5 C 71.3893,166.117 71.056,166.617 70.5,167C 65.9317,169.122 61.5984,168.955 57.5,166.5C 62.263,167.813 66.9296,167.479 71.5,165.5 Z"/></g>
<g><path style="opacity:1" fill="#e45205" d="M 7.5,184.5 C 12.8333,184.5 18.1667,184.5 23.5,184.5C 23.5,186.833 23.5,189.167 23.5,191.5C 23.3335,203.505 23.5001,215.505 24,227.5C 24.7384,230.648 26.2384,233.315 28.5,235.5C 29.9869,236.804 31.6536,237.97 33.5,239C 28.8452,239.499 24.1785,239.666 19.5,239.5C 14.0131,238.187 10.1798,234.853 8,229.5C 7.50008,214.504 7.33342,199.504 7.5,184.5 Z"/></g>
</svg>
